<svg version="1.1" id="Layer_1" xmlns="http://www.w3.org/2000/svg" xmlns:xlink="http://www.w3.org/1999/xlink" x="0px"
     y="0px" viewBox="0 0 1200 1200" enable-background="new 0 0 1200 1200" xml:space="preserve">
<g>
	<g>
		<path fill="#1E1D1D" d="M58.581,611.729c19.4,3.478,91.375,23.076,145.665,36.382c9.997,2.45,18.844,9.279,28.595,13.146
			c7.488,2.97,15.562,4.461,25.461,7.183c-0.637,5.967-0.792,14.941-2.679,23.535c-1.539,7.009-1.886,13.849-1.372,20.569
			c3.172-0.52,6.588-2.73,9.562-4.776c1.668-1.147,4.226-0.296,4.813,1.666c2.003,6.699,0.262,14.03,2.14,20.657
			c2.931,10.345,7.165-3.316,12.004-6.465c2.141-1.393,4.43-0.189,5.015,2.145c0.869,3.468,1.343,7.131,2.402,10.583
			c4.1-7.804,6.361-17.356,14.85-21.233c1.458-0.666,3.292-0.403,4.12,1.138c3.068,5.708,5.35,11.599,7.387,17.536
			c-0.45-12.16,0.717-24.694,3.619-36.404c1.552-6.265,8.782-12.835,15.079-15.833c10.804-5.145,17.791,0.833,18.514,12.863
			c0.595,9.903,1.478,19.704,2.643,29.406c-6.458,42.687-14.593,85.12-24.397,127.165c-4.024,17.257-8.343,35.191-4.503,52.489
			c6.148-2.788,9.29-9.537,11.926-15.751c9.435-22.235,18.871-44.469,28.306-66.704c-3.647,28.277-7.293,56.554-10.939,84.831
			c-0.7,5.428,0.872,13.333,6.298,12.619c2.96-0.39,4.7-3.447,5.917-6.172c5.668-12.696,10.023-25.975,13-39.555
			c-1.828,13.471-1.913,27.178-0.205,40.665c0.634,5,1.596,10.179,4.616,14.215c3.019,4.035,8.672,6.524,13.26,4.437
			c3.849-1.751,5.811-5.988,7.4-9.906c7.966-19.652,14.529-39.872,19.623-60.455c18.619,48.137,11.909,102.318,23.788,152.545
			c1.024,4.331,2.674,9.208,6.804,10.868c6.128,2.462,12.087-3.958,14.887-9.939c6.693-14.298,8.297-30.378,9.526-46.117
			c3.48-44.571,4.713-89.317,3.694-134.012c39.826,70.003,51.19,152.387,81.829,226.87c1.239,3.011,2.646,6.18,5.349,7.993
			c7.687,5.156,16.853-4.277,20.637-12.724c18.121-40.459,17.2-86.524,15.95-130.838c17.314,31.954,34.629,63.908,51.943,95.861
			c2.945,5.434,8.639,11.786,14.042,8.784c3.985-2.213,4.043-7.833,3.502-12.359c-3.029-25.318-8.435-50.351-16.124-74.663
			c5.521,7.817,11.043,15.635,16.565,23.452c2.666,3.774,7.482,7.982,11.2,5.238c2.9-2.139,2.114-6.599,1.029-10.035
			c-8.602-27.233-17.203-54.466-25.805-81.698c30.825,28.971,59.823,59.886,86.762,92.501c5.048,6.111,10.36,12.534,17.743,15.417
			c7.383,2.884,17.419,0.641,20.3-6.743c1.306-3.347,0.948-7.109,0.174-10.617c-3.892-17.641-28.37-76.886-40.45-90.319
			c-20.35-22.63-34.888-31.387-47.884-44.228c-8.836-10.728-15.63-22.938-19.101-37.316c-2.851-11.81-1.079-24.92-0.271-37.365
			c0.565-8.711,7.118-11.287,15.688-9.074c3.182,0.822,6.446,1.295,9.715,1.634c8.25,0.854,12.007,4.342,12.555,13.844
			c0.666,11.564,5.327,21.651,19.585,23.911c3.829,0.607,8.668,5.768,9.948,9.818c11.377,35.973,39.014,57.778,67.636,78.634
			c46.275,33.719,96.906,31.355,148.564,16.446c12.8-3.694,25.02-9.457,37.384-14.567c2.978-1.23,5.467-3.645,8.181-5.515
			l-0.669-4.299c-6.812,0-13.625-0.093-20.435,0.017c-25.683,0.414-51.465,2.421-77.009,0.757
			c-14.532-0.946-28.676-7.852-42.995-12.073c0.28-0.918,0.559-1.836,0.84-2.754c18.977,3.375,37.837,8.542,56.952,9.781
			c52.924,3.434,105.751,3.298,155.471-19.486c18.408-8.435,33.569-20.81,42.234-39.666c1.397-3.041,0.693-7.049,0.959-10.609
			c-3.034,1.742-6.775,2.849-8.997,5.321c-30.066,33.432-71.224,40.097-107.478,24.58c-23.335-0.942-46.843-4.9-68.996-9.613
			c-36.148-7.691-70.009-20.381-100.431-41.608c-2.406-1.678,0.037-5.453,2.489-3.823c47.417,31.511,102.123,44.038,157.778,47.492
			c53.91-9.401,109.906-11.757,148.24-56.991c-36.666,29.341-90.754,30.298-135.476,32.579c-2.252,0.115-2.585-3.771-0.309-3.971
			c25.646-2.252,51.566-3.154,76.849-8.36c22.057-4.542,41.045-12.842,58.278-25.944c-0.091-0.15-0.177-0.293-0.285-0.47
			c-4.683,1.043-9.521,1.692-13.938,3.418c-36.233,14.16-73.207,19.72-111.67,9.398c8.334,0,16.669,0.034,25.002-0.009
			c8.814-0.047,17.695,0.475,26.421-0.442c8.285-0.87,16.407-3.28,24.601-5.013l-0.225-4.632c-2.966-0.768-5.935-2.188-8.898-2.176
			c-7.39,0.029-14.781,0.65-22.165,1.135c-36.435,2.394-69.139-8.784-98.385-29.368c-52.835-37.186-107.6-35.582-164.537-11.417
			c-7.944,3.372-17.378,3.274-26.14,4.667c-4.983,0.793-10.375,0.82-15.426,1.45c-2.463,2.682-4.894,5.391-7.037,8.357
			c-3.389,4.691-5.669,9.991-7.804,15.34c-0.947,2.372-4.524,0.856-4.064-1.487c1.471-7.494,5.078-14.076,9.834-19.819
			c-0.395,0.186-0.811,0.332-1.191,0.545c-7.512,4.208-14.695,5.081-21.914,4.517c-1.815,3.264-3.443,6.628-4.739,10.149
			c-0.783,2.126-4.446,1.425-3.976-0.923c0.705-3.524,1.988-6.758,3.61-9.834c-3.181-0.501-6.385-1.189-9.644-1.919
			c-20.063-4.493-20.091-4.367-12.127-23.586c12.718-30.692,8.279-47.56-18.158-68.168c-5.514-4.299-11.377-8.15-19.313-13.797
			c1.813-0.189,3.387-0.373,4.826-0.541c5.493,1.645,10.985,3.289,16.478,4.933c18.655,5.585,37.766,11.229,57.211,10.194
			c20.846-1.11,42.903-9.66,61.705-0.59c6.652,3.208,12.635,8.563,20.003,9.059c7.368,0.497,15.19-8.46,10.203-13.906
			c4.853-4.987,14.445,5.891,19.435,1.041c1.789-1.738,1.687-4.573,2.329-6.983c2.797-10.501,17.973-10.428,27.94-6.096
			c9.967,4.331,21.569,10.556,30.828,4.866c-8.582-8.231-17.164-16.462-25.745-24.693c-1.554-1.491-3.169-3.078-3.784-5.142
			c-1.149-3.856,1.79-7.986,5.498-9.548c3.707-1.563,7.912-1.201,11.905-0.707c31.898,3.945,62.944,14.644,90.501,31.188
			c14.262,8.562,28.919,19.063,45.541,18.406c-15.295-16.103-30.227-32.551-44.78-49.327c21.311-10.043,46.505,17.375,68.161,8.1
			c-14.63-12.825-29.421-25.83-40.443-41.863c24.286,5.132,49.473,5.964,74.045,2.445c-16.688-23.003-52.97-21.992-72.694-42.451
			c17.122-1.129,34.245-2.258,51.367-3.386c12.166-0.802,24.879-1.772,35.259-8.165c11.356-6.995,18.261-19.674,21.183-32.687
			c2-8.906,2.344-18.046,2.178-27.2c1.113-5.444,1.513-11.118,1.133-16.917c-0.153-2.327-0.876-4.618-1.84-9.47
			c-2.66,4.646-4.437,7.097-5.564,9.816c-14.42,34.793-57.836,54.348-93.037,40.673c-17.346-6.739-33.734-15.937-50.586-23.96
			c-36.328-17.296-74.429-20.352-113.554-13.427c-30.59,5.414-52.664,22.492-66.09,50.542c-4.103,8.573-8.666,17.045-11.642,26.02
			C772.45,573.304,684,577.868,643.124,541.849c-12.691-11.183-25.736-22.048-37.608-34.058
			c-19.676-19.907-41.644-35.649-69.307-42.498c0.2-1.036,0.4-2.071,0.6-3.106c17.336,2.449,34.869,3.966,51.963,7.567
			c25.103,5.287,47.436,17.074,68.891,31.171c14.289,9.389,29.495,18.498,45.587,23.795c34.215,11.262,63.575-5.686,72.074-40.522
			c4.208-17.247,10.422-32.77,22.924-45.577c1.905-1.952,2.718-4.971,4.035-7.496l-2.188-2.298
			c-3.384,1.812-7.834,2.811-9.953,5.589c-6.54,8.576-13.761,17.165-17.896,26.943c-13.048,30.853-37.541,43.392-68.848,31.56
			c-13.893-5.251-26.753-13.805-39.178-22.199c-10.75-7.262-19.636-17.298-30.427-24.484c-10.44-6.953-22.26-11.834-35.424-18.632
			c18.202,2.566,34.077,6.648,48.24,15.345c11.375,6.985,21.435,16.129,32.876,22.985c11.665,6.99,23.85,13.679,36.642,18.065
			c13.09,4.488,25.186-1.239,29.45-11.249c-1.037-0.683-2.17-2.086-3.25-2.046c-30.263,1.132-53.715-14.442-76.91-30.914
			c-11.479-8.151-23.114-16.133-35.096-23.513c-22.43-13.816-47.269-14.851-72.587-12.504c-4.148,0.385-8.283,0.898-12.983,1.414
			c5.772-9.642,5.093-11.851-5.366-13.329c-21.623-3.057-43.365-5.272-65.01-8.19c-11.142-1.502-22.25-3.453-33.249-5.785
			c-10.927-2.317-17.854-9.209-20.856-20.133c-6.494-23.634-15.788-46.651-10.184-72.241c-0.154-0.181-0.297-0.374-0.45-0.557
			c-4.218-0.85-8.371-1.998-12.544-3.309c-2.037-0.64-0.977-3.885,1.054-3.534c2.922,0.504,5.813,1.17,8.701,1.848
			c0.43-1.298,1.945-2.268,3.13-1.11c0.464,0.455,0.923,0.917,1.385,1.375c0.816-3.189,1.927-7.304,3.249-11.884
			c-4.287-3.929-8.428-8.008-12.828-11.846c-2.474-2.158,1.129-5.444,3.586-3.496c3.791,3.004,7.456,6.156,10.988,9.448
			c2.511-8.264,5.537-17.338,8.713-25.078c-2.989-5.777-5.596-11.763-9.123-17.243c-1.146-1.779,1.52-3.48,2.748-1.777
			c3.324,4.608,6.009,9.473,8.263,14.613c1.607-3.558,3.231-6.691,4.828-9.095c-2.295-10.728-4.967-21.297-8.095-31.841
			c-0.862-2.906,3.258-4.572,4.444-1.706c3.806,9.202,6.816,18.812,8.574,28.631c0.416-0.166,0.828-0.283,1.231-0.287
			c0.441-0.004,1.101,0.3,1.922,0.836c1.079-3.75,2.707-7.377,4.975-10.506c1.317-1.817,4.262-0.562,3.609,1.687
			c-1.198,4.119-3.032,8.07-4.592,12.094c15.412,14.345,52.864,62.61,57.721,85.419c0.829,3.894,2.513,7.606,3.8,11.402l4.254-0.217
			c0.452-7.629,2.21-15.456,1.087-22.845c-2.42-15.921-11.424-28.889-19.604-42.629c-9.612-16.145-61.995-123.7-69.209-125.16
			c-24.659-4.99-69.575,144.525-84.921,180.654c11.845,7.737,22.93,17.225,30.817,27.623c1.648,2.173-1.709,5.144-3.635,3.164
			c-8.962-9.21-19.303-16.48-30.167-23.214c-0.201-0.124-0.404-0.245-0.605-0.369c-6.075,10.312-12.692,20.323-18.419,30.815
			c10.086,1.257,20.227,3.689,29.022,7.606c2.069,0.921,1.105,3.875-1.113,3.34c-10.525-2.538-21.252-3.496-31.875-5.031
			c-3.74,3.965-8.502,5.05-14.859,4.894c-43.324-1.065-86.66-1.597-129.993-2.301c-3.368-0.055-6.738-0.007-10.108-0.007
			c-0.372,1.359-0.744,2.717-1.116,4.076c6.681,2.48,13.185,6.317,20.072,7.211c34.501,4.483,69.133,7.953,103.646,12.356
			c8.078,1.03,15.872,4.287,23.795,6.527c0.129,1.554,0.13,1.562,0.259,3.115c-3.53,1.674-6.932,3.736-10.613,4.957
			c-14.293,4.74-25.359,23.104-34.809,38.863c-0.927-0.62-2.04-0.983-3.239-0.983c-3.224,0-5.838,2.614-5.838,5.838
			c0,2.19,1.22,4.076,3.005,5.075c-1.038,1.627-2.06,3.172-3.066,4.599c-0.32,0.454-0.564,0.962-0.749,1.512
			c-1.712,5.069,2.331,10.257,7.676,10.499c1.374,0.062,2.73,0.024,4.053-0.207c9.521-1.665,17.346-23.412,26.886-24.909
			c9.2-1.443,13.359,3.268,11.244,12.463c-3.168,13.772-42.747,43.216-37.374,55.744c4.57,10.653,53.17-3.736,63.711-8.475
			c11.757-5.285,18.52-0.802,18.408,12.578c-0.029,3.421-0.806,6.797-2.01,10c-7.825,20.818-1.447,38.213,13.401,52.95
			c9.733,9.66,20.642,18.129,30.927,27.242c2.885,2.556,5.975,5.149,8.006,8.341c3.895,6.122,3.501,11.721-4.659,13.799
			c-44.19,11.25-86.59,7.223-126.712-15.33c-1.838-1.033-3.415-2.66-5.349-3.363c-2.776-1.01-5.768-1.425-8.667-2.094
			c-0.585,2.894-1.288,5.772-1.702,8.69c-0.104,0.731-0.036,1.477,0.044,2.001c5.088,2.83,10.272,5.493,15.211,8.583
			c1.808,1.131,0.375,3.838-1.571,2.927c-6.078-2.845-12.33-5.18-17.799-9.038c-8.518,3.535-16.591,7.029-24.865,9.841
			c-0.374,0.127-0.763,0.227-1.157,0.315c4.06,1.668,8.095,3.394,12.062,5.276c1.766,0.838,0.75,3.605-1.111,2.866
			c-7.031-2.793-14.081-5.534-21.007-8.567c-0.046-0.01-0.093-0.018-0.139-0.028c-65.443-13.935-135.432-29.596-142.712-30.704
			c-5.246-0.799-10.706-3.142-11.541,5.467C49.971,602.975,47.763,609.789,58.581,611.729z M965.535,765.335
			c-17.04-2.576-33.707-6.933-50.478-10.819c-1.706-0.395-1.193-3.008,0.536-2.674c16.962,3.277,33.648,7.756,50.565,11.247
			C967.651,763.398,966.983,765.555,965.535,765.335z M858.694,754.976c26.154,8.522,52.671,12.142,79.575,17.273
			c2.362,0.45,1.781,3.947-0.592,3.672c-26.752-3.102-55.355-6.933-79.814-18.84C856.716,756.522,857.456,754.573,858.694,754.976z
			 M768.37,780.868c22.19,11.995,44.404,23.597,67.715,33.295c25.652,10.672,52.139,19.091,77.908,29.423
			c0.915,0.367,0.326,1.876-0.613,1.608c-50.145-14.289-103.362-31.736-147.259-60.471
			C763.721,783.151,765.832,779.496,768.37,780.868z M520.042,407.478l-0.184,2.498c-19.055-1.286-38.11-2.572-57.166-3.858
			c-0.006-1.144-0.012-2.288-0.018-3.432C481.797,404.282,500.92,405.88,520.042,407.478z"
          style="fill: #da6b0a;"></path>
	</g>
</g>
</svg>
