<?xml version="1.0" encoding="UTF-8" standalone="no"?>
<!-- Created with Inkscape (http://www.inkscape.org/) -->

<svg
   id="svg2"
   sodipodi:docname="Cartoon Moon.svg"
   viewBox="0 0 500 500"
   sodipodi:version="0.32"
   version="1.1"
   inkscape:version="1.2.2 (732a01da63, 2022-12-09)"
   width="500"
   height="500"
   xmlns:inkscape="http://www.inkscape.org/namespaces/inkscape"
   xmlns:sodipodi="http://sodipodi.sourceforge.net/DTD/sodipodi-0.dtd"
   xmlns="http://www.w3.org/2000/svg"
   xmlns:svg="http://www.w3.org/2000/svg"
   xmlns:rdf="http://www.w3.org/1999/02/22-rdf-syntax-ns#"
   xmlns:cc="http://creativecommons.org/ns#"
   xmlns:dc="http://purl.org/dc/elements/1.1/">
  <defs
     id="defs26" />
  <sodipodi:namedview
     id="base"
     bordercolor="#666666"
     inkscape:pageshadow="2"
     inkscape:window-y="-8"
     pagecolor="#ffffff"
     inkscape:window-maximized="1"
     inkscape:window-width="1920"
     inkscape:zoom="0.7"
     inkscape:window-x="1912"
     showgrid="false"
     borderopacity="1.0"
     inkscape:current-layer="layer1"
     inkscape:cx="193.57143"
     inkscape:cy="277.14286"
     inkscape:window-height="1017"
     inkscape:pageopacity="0.0"
     inkscape:document-units="px"
     inkscape:showpageshadow="2"
     inkscape:pagecheckerboard="0"
     inkscape:deskcolor="#d1d1d1" />
  <g
     id="layer1"
     inkscape:label="Layer 1"
     inkscape:groupmode="layer"
     transform="translate(-136.66,-233.3)">
    <g
       id="g2100"
       transform="matrix(1.0037,0,0,1.0037,-0.50153345,-0.86650876)">
      <circle
         id="path1291"
         style="fill:#000000;fill-rule:evenodd;stroke:#000000;stroke-width:1px"
         transform="matrix(1.7728,0,0,1.7728,-298.06,-372.75)"
         cx="385.71429"
         cy="482.36218"
         r="140" />
      <circle
         id="path2052"
         style="fill:#5e5e5e;fill-rule:evenodd;stroke:#000000;stroke-width:1px"
         transform="matrix(1.7422,0,0,1.7117,-283.44,-346.18)"
         cx="385.71429"
         cy="482.36218"
         r="140" />
      <circle
         id="path2058"
         style="fill:#d2d2d2;fill-rule:evenodd"
         transform="matrix(1.3355,0,0,1.3355,-95.135,-203.28)"
         cx="385.71429"
         cy="482.36218"
         r="140" />
      <circle
         id="path2060"
         style="fill:#d2d2d2;fill-rule:evenodd"
         transform="matrix(0.75168,-0.47006,0.22119,0.3537,-72.341,347.35)"
         cx="385.71429"
         cy="482.36218"
         r="140" />
      <circle
         id="path2062"
         style="fill:#d2d2d2;fill-rule:evenodd"
         transform="matrix(0.75168,-0.47006,0.22119,0.3537,-102.34,437.35)"
         cx="385.71429"
         cy="482.36218"
         r="140" />
      <circle
         id="path2064"
         style="fill:#d2d2d2;fill-rule:evenodd"
         transform="matrix(0.75168,-0.47006,0.22119,0.3537,-108.06,504.49)"
         cx="385.71429"
         cy="482.36218"
         r="140" />
      <circle
         id="path2066"
         style="fill:#d2d2d2;fill-rule:evenodd"
         transform="matrix(0.75168,-0.47006,0.22119,0.3537,-52.341,533.06)"
         cx="385.71429"
         cy="482.36218"
         r="140" />
      <circle
         id="path2068"
         style="fill:#d2d2d2;fill-rule:evenodd"
         transform="matrix(0.75168,-0.47006,0.22119,0.3537,-23.769,591.63)"
         cx="385.71429"
         cy="482.36218"
         r="140" />
      <circle
         id="path2070"
         style="fill:#d2d2d2;fill-rule:evenodd"
         transform="matrix(0.75168,-0.47006,0.22119,0.3537,47.659,595.92)"
         cx="385.71429"
         cy="482.36218"
         r="140" />
      <circle
         id="path2072"
         style="fill:#d2d2d2;fill-rule:evenodd"
         transform="matrix(0.79692,0.38847,-0.18279,0.37499,157.93,263.07)"
         cx="385.71429"
         cy="482.36218"
         r="140" />
      <circle
         id="path2074"
         style="fill:#d2d2d2;fill-rule:evenodd"
         transform="matrix(0.79692,0.38847,-0.18279,0.37499,212.22,233.07)"
         cx="385.71429"
         cy="482.36218"
         r="140" />
      <circle
         id="path2076"
         style="fill:#d2d2d2;fill-rule:evenodd"
         transform="matrix(0.79692,0.38847,-0.18279,0.37499,243.65,195.93)"
         cx="385.71429"
         cy="482.36218"
         r="140" />
      <circle
         id="path2078"
         style="fill:#d2d2d2;fill-rule:evenodd"
         transform="matrix(0.79692,0.38847,-0.18279,0.37499,275.08,147.36)"
         cx="385.71429"
         cy="482.36218"
         r="140" />
      <path
         id="path2082"
         style="fill:#5e5e5e"
         inkscape:connector-curvature="0"
         d="m 266.98,476.23 c -5.27,13.68 -3.75,31.13 5.62,46.46 14.52,23.75 42.14,33.34 61.65,21.41 19.52,-11.92 23.58,-40.88 9.07,-64.63 -3.77,-6.15 -8.45,-11.28 -13.6,-15.41 1.61,1.84 3.13,3.81 4.46,5.98 11.52,18.84 6.94,42.66 -10.22,53.15 -17.16,10.49 -40.41,3.68 -51.93,-15.16 -6.2,-10.14 -7.61,-21.64 -5.05,-31.8 z" />
      <path
         id="path2087"
         style="fill:#5e5e5e"
         inkscape:connector-curvature="0"
         d="m 398.05,501.35 c -1.46,-4.49 -2.62,-9.22 -3.07,-14.28 -2.33,-26.71 11.71,-49.78 31.35,-51.49 19.64,-1.72 37.45,18.55 39.79,45.26 0.04,0.55 -0.02,1.06 0.01,1.6 1.43,-5.29 2.06,-10.94 1.54,-16.79 -2.16,-24.75 -22.42,-43.21 -45.2,-41.22 -22.78,1.99 -39.52,23.7 -37.36,48.44 0.99,11.3 5.89,21.15 12.94,28.48 z" />
      <path
         id="path2092"
         style="fill:#5e5e5e"
         inkscape:connector-curvature="0"
         d="m 412.4,583.27 c -0.56,2.93 -1.37,5.9 -2.68,8.81 -6.95,15.38 -22.11,23.48 -33.85,18.08 -11.73,-5.41 -15.6,-22.26 -8.66,-37.64 0.14,-0.31 0.34,-0.57 0.49,-0.88 -2.46,2.44 -4.56,5.33 -6.09,8.7 -6.43,14.25 -0.6,30.9 13.01,37.16 13.61,6.27 29.89,-0.21 36.32,-14.46 2.94,-6.5 3.2,-13.48 1.46,-19.77 z" />
      <path
         id="path2094"
         style="fill:#5e5e5e"
         inkscape:connector-curvature="0"
         d="m 531.42,442.52 c 2.26,-0.87 4.61,-1.51 7.06,-1.6 12.96,-0.49 23,10.94 22.42,25.52 -0.57,14.57 -11.55,26.78 -24.5,27.27 -0.26,0.01 -0.5,-0.06 -0.77,-0.06 2.44,1.3 5.09,2.02 7.93,1.91 12.01,-0.45 22.29,-14.55 22.95,-31.46 0.67,-16.91 -8.53,-30.27 -20.53,-29.81 -5.48,0.21 -10.54,3.37 -14.56,8.23 z" />
      <path
         id="path2096"
         style="fill:#5e5e5e"
         inkscape:connector-curvature="0"
         d="m 395.21,298.94 c -1.5,-3.99 -2.45,-7.99 -2.13,-11.9 1.71,-20.61 30.06,-30.65 63.27,-22.43 33.21,8.22 58.73,31.6 57.02,52.21 -0.03,0.42 -0.25,0.76 -0.31,1.17 3.51,-3.17 5.74,-6.99 6.11,-11.5 1.59,-19.09 -28.41,-42.33 -66.93,-51.87 -38.52,-9.54 -71.09,-1.79 -72.68,17.3 -0.72,8.72 5.4,18.27 15.65,27.02 z" />
      <path
         id="path2098"
         style="fill:#5e5e5e"
         inkscape:connector-curvature="0"
         d="m 326.33,305.72 c 3.14,3.54 6.09,7.41 8.51,11.88 12.8,23.56 9.12,50.31 -8.21,59.72 -17.32,9.41 -41.74,-2.08 -54.54,-25.64 -0.26,-0.48 -0.4,-0.98 -0.65,-1.46 0.8,5.43 2.48,10.85 5.29,16.01 11.85,21.83 37.79,30.69 57.89,19.77 20.09,-10.91 26.79,-37.49 14.93,-59.32 -5.41,-9.97 -13.83,-17.05 -23.22,-20.96 z" />
    </g>
  </g>
  <metadata
     id="metadata25">
    <rdf:RDF>
      <cc:Work>
        <dc:format>image/svg+xml</dc:format>
        <dc:type
           rdf:resource="http://purl.org/dc/dcmitype/StillImage" />
        <cc:license
           rdf:resource="http://creativecommons.org/publicdomain/zero/1.0/" />
        <dc:publisher>
          <cc:Agent
             rdf:about="http://openclipart.org/">
            <dc:title>Openclipart</dc:title>
          </cc:Agent>
        </dc:publisher>
      </cc:Work>
      <cc:License
         rdf:about="http://creativecommons.org/publicdomain/zero/1.0/">
        <cc:permits
           rdf:resource="http://creativecommons.org/ns#Reproduction" />
        <cc:permits
           rdf:resource="http://creativecommons.org/ns#Distribution" />
        <cc:permits
           rdf:resource="http://creativecommons.org/ns#DerivativeWorks" />
      </cc:License>
    </rdf:RDF>
  </metadata>
</svg>
