<svg version="1.1" id="Layer_1" xmlns="http://www.w3.org/2000/svg" xmlns:xlink="http://www.w3.org/1999/xlink" x="0px"
     y="0px" viewBox="0 0 1200 1300" enable-background="new 0 0 1200 1200" xml:space="preserve">
<g>
	<path fill="#da6b0a" transform="rotate(-33) translate(-750 10) scale(1.5)" d="M1149.929,416.295c0.17-1.827,0.063-3.21-0.602-4.492c-1.612-1.205-3.279-2.23-5.226-2.851
		c-7.151-2.283-14.467-2.965-21.93-2.597c-7.401,0.365-14.666,1.738-21.954,2.904c-6.162,0.986-12.263,2.329-18.361,3.654
		c-6.375,1.386-12.833,2.357-19.177,3.89c-3.033,0.733-6.03,1.677-9.1,2.18c-12.891,2.111-25.494,5.573-38.309,8.049
		c-8.626,1.666-17.151,3.849-25.73,5.762c-8.579,1.913-17.166,3.797-25.756,5.66c-17.737,3.846-35.387,8.059-52.979,12.519
		c-5.221,1.323-10.477,2.509-15.721,3.739c-11.316,2.654-22.532,5.704-33.81,8.508c-4.953,1.232-9.93,2.367-14.896,3.547
		c-2.514,1.48-5.546,1.243-8.139,2.462c-3.176,0.162-5.983,1.704-9.021,2.433c-11.852,2.843-23.62,6.028-35.437,9.018
		c-9.612,2.432-19.17,5.079-28.768,7.571c-5.488,1.425-10.992,2.799-16.52,4.061c-2.773,0.633-5.439,1.592-8.175,2.317
		c-2.74,0.725-5.562,1.171-8.263,2.012c-2.708,0.844-5.615,1.016-8.156,2.412c-9.717,2.029-19.273,4.698-28.857,7.256
		c-2.465,0.658-5.064,0.908-7.44,1.783c-4.018,1.478-8.267,2.086-12.271,3.456c-4.052,1.386-8.234,2.13-12.323,3.285
		c-4.09,1.155-8.162,2.404-12.304,3.335c-7.196,1.617-14.143,4.174-21.394,5.563c-4.636,2.279-9.961,2.304-14.63,4.474
		c-5.268,1.139-10.419,2.745-15.555,4.323c-3.249,0.999-6.507,2.097-9.794,2.839c-3.337,0.753-6.378,2.473-9.823,2.743
		c-4.162,1.909-8.738,2.433-13.032,3.882c-4.567,1.543-9.174,2.974-13.848,4.095c-3.872,0.929-7.632,2.204-11.405,3.386
		c-9.465,2.965-18.883,6.078-28.586,8.178c-2.501,0.542-4.687,2.228-7.389,1.946c-5.315,1.159-10.63,2.323-15.947,3.475
		c0.145-0.167,0.298-0.318,0.481-0.406c1.791-0.869,3.62-1.665,5.463-2.421c7.643-3.136,15.324-6.183,22.927-9.413
		c2.067-0.878,3.946-2.227,5.841-3.468c1.08-0.707,1.27-2.67,0.612-3.875c-0.611-1.117-1.658-1.733-2.771-1.675
		c-1.689,0.087-3.399,0.42-5.029,0.894c-10.669,3.105-21.316,6.274-31.635,10.45c-4.484,1.815-9.036,3.47-13.603,5.066
		c-1.022,0.357-2.146,1.299-3.728,0.245c1.939-1.19,3.622-2.253,5.335-3.267c9.568-5.666,19.082-11.426,28.735-16.943
		c7.197-4.114,14.007-8.783,20.71-13.626c1.119-0.808,2.019-1.961,2.89-3.058c0.776-0.978,0.555-2.955-0.346-3.981
		c-0.778-0.886-1.788-1.575-2.982-1.297c-1.641,0.382-3.32,0.821-4.815,1.571c-14.271,7.149-28.506,14.369-42.753,21.564
		c-0.509,0.257-1.021,0.587-1.564,0.669c-0.482,0.074-1.09-0.021-1.496-0.275c-0.515-0.322-0.456-0.962,0.1-1.418
		c7.264-5.964,14.387-12.115,21.862-17.802c6.57-4.999,12.848-10.417,19.952-14.7c0.217-0.131,0.439-0.478,0.428-0.714
		c-0.022-0.489-0.063-1.277-0.337-1.398c-0.73-0.322-1.644-0.62-2.383-0.458c-3.395,0.741-6.364,2.474-9.188,4.422
		c-12.905,8.903-25.763,17.862-37.862,27.87c-6.147,5.084-12.554,9.854-18.829,14.784c-1.428,1.122-2.933,1.608-4.758,1.153
		c-3.094-0.771-6.237-0.947-9.282,0.124c-4.025,1.414-8.052,2.857-11.964,4.549c-2.987,1.292-4.999,3.728-6.208,6.763
		c-0.527,1.323-0.944,2.689-1.446,4.022c-0.802,2.13-1.407,2.463-3.915,2.202c-4.253-0.442-8.497-1.016-12.76-1.296
		c-3.117-0.205-6.33-0.442-9.372,0.08c-3.996,0.686-7.927,0.589-11.914,0.438c-29.064-1.105-58.143-1.589-87.205-0.419
		c-39.59,1.594-79.103,4.442-118.532,8.395c-3.119,0.313-6.241,0.631-9.338,1.103c-1.389,0.212-2.741,0.754-4.069,1.252
		c-1.403,0.526-2.587,2.592-2.454,4.172c0.128,1.515,0.828,2.816,2.219,3.391c1.557,0.644,3.228,1.238,4.887,1.365
		c3.689,0.283,7.402,0.374,11.104,0.344c19.097-0.152,38.195-0.306,57.291-0.575c23.371-0.33,46.739-0.787,70.109-1.158
		c2.835-0.045,5.673,0.088,8.509,0.175c0.241,0.007,0.692,0.333,0.672,0.439c-0.086,0.448-0.215,1.144-0.508,1.249
		c-1.057,0.38-2.178,0.602-3.289,0.806c-27.745,5.086-55.494,10.152-83.238,15.245c-18.215,3.344-36.426,6.713-54.633,10.106
		c-2.798,0.521-5.587,1.133-8.324,1.903c-1.032,0.291-2.057,1.008-2.794,1.801c-0.488,0.526-0.581,1.526-0.629,2.327
		c-0.058,0.979,0.742,1.535,1.522,1.842c0.768,0.303,1.662,0.545,2.463,0.458c2.546-0.273,5.086-0.643,7.607-1.098
		c18.506-3.345,37.028-6.604,55.501-10.123c13.17-2.509,26.447-4.209,39.727-5.938c1.122-0.146,2.269-0.124,3.405-0.139
		c0.271-0.004,0.544,0.158,0.816,0.243c-0.288,0.407-0.489,1.016-0.879,1.183c-1.034,0.443-2.138,0.747-3.236,1.016
		c-22.417,5.49-44.77,11.24-66.831,18.031c-24.231,7.459-48.43,15.035-72.541,22.873c-14.626,4.755-29.071,10.072-43.567,15.221
		c-2.119,0.753-4.09,1.942-6.089,3.007c-0.891,0.475-1.337,1.983-1.06,3.015c0.358,1.334,1.901,2.409,3.247,2.137
		c1.384-0.279,2.772-0.603,4.106-1.061c21.287-7.309,42.591-14.566,64.125-21.118c12.801-3.894,25.668-7.573,38.509-11.336
		c0.257-0.075,0.558,0.001,0.839,0.007c-0.211,0.37-0.331,0.89-0.649,1.082c-0.971,0.585-1.981,1.141-3.041,1.538
		c-12.539,4.703-24.893,9.851-37.194,15.144c-9.426,4.056-18.748,8.329-28.064,12.626c-7.013,3.234-13.685,7.039-20.288,10.996
		c-0.962,0.577-1.785,1.393-2.646,2.13c-0.628,0.538-0.874,2.4-0.467,3.192c0.426,0.828,1.959,1.747,2.863,1.561
		c1.378-0.283,2.795-0.54,4.083-1.079c5.257-2.199,10.408-4.659,15.71-6.738c24.681-9.676,49.714-18.356,75.193-25.678
		c26.285-7.553,52.651-14.823,78.988-22.194c4.934-1.381,9.894-2.668,14.854-3.954c0.824-0.214,1.136,0.11,0.81,0.607
		c-0.151,0.23-0.319,0.523-0.548,0.617c-2.627,1.078-5.263,2.136-7.905,3.176c-11.134,4.383-22.317,8.645-33.395,13.164
		c-14.51,5.919-29.014,11.864-43.379,18.122c-14.366,6.259-28.579,12.875-42.822,19.412c-17.611,8.083-35.424,15.722-52.852,24.207
		c-11.019,5.365-22.115,10.567-32.829,16.539c-3.484,1.942-7.098,3.652-10.598,5.568c-1.988,1.088-3.901,2.327-5.781,3.598
		c-1.134,0.766-1.468,2.518-0.919,3.83c0.507,1.211,2.276,1.949,3.587,1.504c0.27-0.091,0.567-0.113,0.822-0.231
		c4.397-2.036,8.809-4.041,13.178-6.135c7.196-3.449,14.357-6.973,21.545-10.439c7.958-3.837,15.944-7.617,23.892-11.475
		c6.923-3.361,13.814-6.789,20.711-10.202c1.578-0.781,3.178-1.276,4.925-0.661c2.346,0.826,4.446,0.145,6.561-0.894
		c10.237-5.029,20.76-9.406,31.33-13.673c8.437-3.406,16.872-6.817,25.308-10.226c0.094,0.157,0.189,0.314,0.284,0.471
		c-2.418,1.483-4.753,3.126-7.268,4.42c-9.122,4.694-18.361,9.162-27.45,13.919c-12.122,6.344-24.146,12.877-36.212,19.328
		c-1.508,0.807-3.01,1.627-4.528,2.416c-15.953,8.294-31.197,17.801-46.51,27.19c-0.969,0.594-1.887,1.281-2.782,1.984
		c-0.441,0.346-0.78,0.823-1.16,1.246c-0.836,0.929-0.84,3.061,0.068,3.959c0.844,0.836,1.975,1.379,3.087,0.961
		c1.85-0.696,3.669-1.544,5.371-2.547c6.878-4.056,13.771-8.068,20.977-11.536c6.933-3.337,13.743-6.929,20.676-10.265
		c7.959-3.829,15.966-7.562,24.003-11.224c9.076-4.135,18.195-8.176,27.32-12.201c9.125-4.024,18.263-8.021,27.429-11.951
		c12.569-5.39,25.171-10.706,37.758-16.055c12.325-5.238,24.619-10.548,36.983-15.694c11.573-4.816,23.184-9.548,34.844-14.15
		c12.188-4.81,24.453-9.424,36.691-14.105c0.233-0.089,0.551,0.043,0.829,0.072c-0.176,0.383-0.246,0.91-0.543,1.125
		c-3.247,2.352-6.78,4.184-10.473,5.742c-8.926,3.764-17.842,7.554-26.742,11.38c-12.564,5.401-25.142,10.775-37.656,16.29
		c-11.472,5.055-22.893,10.228-34.288,15.454c-6.475,2.97-12.89,6.078-19.266,9.255c-9.693,4.829-19.469,9.519-28.963,14.719
		c-21.769,11.925-42.848,25-63.35,38.999c-2.119,1.447-4.297,2.813-6.347,4.351c-0.884,0.663-1.592,1.612-2.236,2.532
		c-1.065,1.519,0.362,4.527,2.239,4.649c1.104,0.071,2.346,0.058,3.326-0.372c4.959-2.172,9.89-4.417,14.761-6.781
		c7.436-3.608,14.781-7.405,22.225-10.996c14.888-7.181,29.815-14.281,44.737-21.393c0.485-0.231,1.08-0.229,2.182-0.445
		c-3.32,3.044-6.817,4.963-10.182,7.057c-10.166,6.328-20.391,12.564-30.506,18.972c-3.846,2.437-7.476,5.219-11.156,7.909
		c-0.655,0.479-1.278,1.213-1.539,1.961c-0.253,0.727-0.278,1.759,0.067,2.407c0.353,0.661,1.235,1.337,1.961,1.432
		c1.075,0.142,2.342,0.039,3.305-0.422c2.565-1.228,5.082-2.591,7.493-4.099c12.085-7.563,24.131-15.186,36.187-22.795
		c9.886-6.238,19.75-12.511,29.659-18.713c2.898-1.814,5.865-3.532,8.885-5.133c10.578-5.607,21.224-11.085,31.785-16.722
		c12.071-6.443,24.076-13.011,36.123-19.499c1.244-0.67,2.575-1.179,3.883-1.72c0.095-0.039,0.399,0.24,0.488,0.427
		c0.109,0.228,0.208,0.574,0.11,0.765c-0.255,0.493-0.532,1.041-0.954,1.372c-8.965,7.04-17.989,14.005-26.923,21.084
		c-9.156,7.255-18.26,14.578-27.329,21.943c-8.85,7.188-17.572,14.552-26.964,21.025c-10.34,7.126-20.332,14.692-29.847,22.871
		c-4.532,3.895-8.808,8.093-13.112,12.245c-0.773,0.746-1.304,1.892-1.583,2.949c-0.191,0.723,0.104,1.682,0.447,2.411
		c0.383,0.816,2.289,1.355,3.027,0.97c1.507-0.786,3.099-1.477,4.446-2.486c3.419-2.561,6.743-5.253,10.07-7.935
		c9.095-7.333,18.167-14.692,27.256-22.032c9.314-7.521,18.529-15.184,28.516-21.811c20.192-13.399,40.049-27.305,60.662-40.066
		c1.211-0.75,2.417-1.513,3.671-2.185c0.473-0.254,1.072-0.3,1.623-0.371c0.23-0.029,0.642,0.062,0.698,0.205
		c0.19,0.485,0.517,1.151,0.332,1.511c-1.461,2.852-4.143,4.622-6.359,6.777c-12.662,12.314-25.481,24.468-38.135,36.791
		c-16.735,16.297-33.052,33.025-50.385,48.706c-3.378,3.057-6.597,6.293-9.803,9.532c-0.986,0.996-1.814,2.205-2.479,3.443
		c-0.552,1.028-0.41,2.187,0.372,3.182c0.755,0.961,1.924,1.475,3.01,1.014c1.29-0.548,2.487-1.313,3.735-1.964
		c0.228-0.118,0.527-0.236,0.758-0.187c0.574,0.122,0.62,0.573,0.395,1.29c-0.339,1.081-0.674,2.182-0.821,3.299
		c-0.317,2.4,2.145,4.581,4.349,3.801c1.592-0.563,3.176-1.265,4.604-2.159c5.834-3.652,10.811-8.373,15.752-13.095
		c10.503-10.038,20.917-20.17,31.322-30.31c15.098-14.712,30.251-29.366,44.616-44.814c11.656-12.534,24.196-24.16,37.465-34.968
		c8.616-7.018,17.479-13.732,26.199-20.624c5.589-4.417,11.141-8.881,16.667-13.375c4.2-3.415,8.318-6.93,12.507-10.359
		c1.137-0.93,2.559-1.618,3.873-0.563c3.741,3.005,7.85,2.909,12.17,1.812c3.589-0.911,7.204-1.717,10.793-2.629
		c3.691-0.938,6.96-2.561,8.991-5.998c1.064-1.801,2.651-1.823,4.452-1.487c8.406,1.568,16.798,3.232,25.237,4.6
		c10.694,1.734,21.426,3.229,32.147,4.792c1.971,0.287,3.964,0.472,5.953,0.57c0.821,0.041,1.665-0.242,2.488-0.428
		c0.904-0.204,1.987-1.733,1.721-2.64c-0.313-1.067-0.846-2.073-1.319-3.089c-0.341-0.732-0.211-1.227,0.453-1.188
		c1.978,0.117,3.949,0.395,5.927,0.476c1.982,0.081,3.977,0.098,5.953-0.046c1.209-0.088,2.005-0.971,2.405-2.13
		c0.456-1.317-0.01-3.185-1.109-3.817c-1.467-0.844-2.965-1.695-4.55-2.264c-12.902-4.631-26.021-8.48-39.567-10.759
		c-1.681-0.283-3.342-0.686-5.007-1.057c-0.237-0.053-0.632-0.24-0.632-0.367c-0.003-0.681,0.403-1.089,1.085-1.114
		c6.547-0.235,13.098-0.403,19.643-0.696c9.111-0.408,18.223-0.827,27.324-1.411c3.11-0.199,6.2-0.839,9.273-1.417
		c1.595-0.3,2.735-2.243,2.606-3.945c-0.124-1.626-1.133-2.709-2.498-3.157c-1.879-0.616-3.864-1.029-5.834-1.223
		c-9.361-0.923-18.719-1.933-28.102-2.545c-9.107-0.593-18.24-0.768-27.362-1.141c6.742-1.579,13.422-3.409,20.152-5.033
		c8.82-2.129,17.718-3.99,26.43-6.495c8.73-2.511,17.583-4.475,26.373-6.714c6.044-1.539,12.243-2.507,18.224-4.242
		c7.916-2.296,15.949-3.988,23.998-5.672c6.105-1.278,12.177-2.714,18.264-4.079c4.45-1.978,9.287-2.625,13.951-3.768
		c4.679-1.147,9.28-2.579,13.981-3.644c4.977-1.128,9.898-2.503,14.848-3.749c4.946-1.245,9.942-2.398,14.757-4.008
		c4.852-1.622,10.016-2.128,14.677-4.333c5.097-0.65,9.818-2.741,14.801-3.873c4.966-1.128,9.746-3.079,14.717-4.171
		c3.625-0.796,7.076-2.079,10.601-3.113c9.514-2.791,19.045-5.51,28.656-7.941c7.422-1.878,14.879-3.615,22.32-5.415
		c4.453-1.951,9.285-2.574,13.915-3.912c4.618-1.334,9.277-2.638,14.087-3.198c0.277-0.032,0.537-0.193,0.814-0.256
		c19.077-4.359,38.169-8.656,57.226-13.102c6.62-1.544,13.242-3.083,19.732-5.194c5.649-1.837,11.392-3.522,17.253-4.532
		c9.8-1.69,19.41-4.168,29.086-6.385c3.045-0.698,5.921-1.938,9.04-2.379c3.087-0.436,6.134-1.162,9.193-1.791
		c8.335-1.714,16.671-3.418,24.997-5.177c5.27-1.114,10.507-2.38,15.781-3.47c10.002-2.068,20.031-4.002,30.025-6.104
		c6.107-1.284,12.186-2.672,18.331-3.8c5.297-0.973,10.623-1.865,15.879-3.028c13.563-3,27.092-6.162,40.599-9.408
		c7.715-1.854,15.267-4.354,23.051-5.954c4.166-1.781,8.778-2.337,12.694-4.879c1.869-1.213,4.114-1.848,6.253-2.771
		C1148.505,418.317,1149.318,417.162,1149.929,416.295z M274.748,675.929c-6.219,2.8-12.473,5.523-18.675,8.361
		c-12.921,5.913-25.818,11.878-38.724,17.824c-3.869,1.783-7.743,3.555-11.598,5.367c-3.583,1.684-7.144,3.414-11.797,5.641
		c1.451-1.375,1.947-2.022,2.594-2.427c2.651-1.657,5.268-3.398,8.044-4.822c8.344-4.282,16.731-8.482,25.149-12.615
		c6.888-3.381,13.82-6.675,20.778-9.909c6.957-3.233,13.966-6.355,20.961-9.505c5.959-2.685,11.927-5.35,17.903-7.998
		c0.755-0.335,1.58-0.511,2.909-0.928c-0.941,0.971-1.42,1.632-2.048,2.088C285.397,670.528,280.208,673.47,274.748,675.929z
		 M273.609,622.304c-23.792,6.694-47.592,13.358-71.394,20.017c-1.64,0.459-3.298,0.863-4.966,1.209
		c-0.373,0.077-0.82-0.198-1.233-0.311c0.379-0.402,0.757-0.805,1.317-1.4c3.233-1.203,6.673-2.534,10.148-3.765
		c5.088-1.803,10.19-3.572,15.308-5.288c6.191-2.074,12.421-3.907,18.877-5.132c8.084-1.534,16.019-3.843,24.045-5.7
		c3.581-0.829,7.228-1.377,10.849-2.027c0.161-0.029,0.538,0.243,0.524,0.29c-0.078,0.267-0.183,0.631-0.392,0.736
		C275.687,621.436,274.682,622.002,273.609,622.304z M289.785,579.27c-11.668,0.155-23.334,0.444-35.002,0.626
		c-1.981,0.031-3.967-0.159-5.948-0.276c-0.149-0.009-0.421-0.284-0.4-0.39c0.052-0.263,0.201-0.678,0.379-0.717
		c1.099-0.236,2.211-0.465,3.329-0.55c44.334-3.354,88.715-3.538,133.121-1.944c1.404,0.05,2.802,0.331,4.196,0.544
		c0.167,0.026,0.422,0.31,0.413,0.461c-0.016,0.266-0.205,0.521-0.322,0.781c-0.527,0.186-1.048,0.509-1.582,0.532
		c-2.842,0.122-5.689,0.28-8.53,0.224C349.548,577.972,319.668,578.873,289.785,579.27z M318.438,635.158
		c-19.872,7.799-39.611,15.919-59.225,24.345c-10.458,4.492-20.919,8.978-31.399,13.417c-4.434,1.878-8.921,3.632-14.367,5.841
		c3.664-2.941,6.865-4.646,10.158-6.208c7.712-3.659,15.408-7.353,23.134-10.982c13.14-6.172,26.283-12.339,39.463-18.425
		c2.572-1.187,5.28-2.119,7.99-2.961c9.508-2.956,19.043-5.825,28.574-8.706c0.237-0.072,0.547,0.096,0.823,0.151
		c-0.195,0.409-0.281,1.008-0.604,1.194C321.508,633.672,320.017,634.538,318.438,635.158z M330.602,667.936
		c1.086-2.352,3.15-2.934,4.601-4.221c1.277-1.133,2.509-2.333,3.881-3.34c11.691-8.591,22.684-18.247,36.281-23.952
		c0.786-0.33,1.587-0.636,2.404-0.878c0.231-0.068,0.562,0.095,0.804,0.229c0.072,0.04,0.075,0.419-0.02,0.513
		c-0.599,0.597-1.169,1.258-1.868,1.716c-13.345,8.762-26.702,17.505-40.068,26.233
		C334.756,665.452,332.831,666.569,330.602,667.936z M368.423,657.967c2.339-1.934,4.874-3.586,7.795-4.943
		c-0.92,2.147-2.882,2.809-4.423,3.911c-1.429,1.022-2.997,1.849-4.523,2.735C367.617,659.056,367.917,658.386,368.423,657.967z
		 M366.613,661.468c-3.831,3.276-7.726,6.479-11.806,9.483c1.968-2.66,3.816-5.4,6.611-7.267c1.79-1.196,3.606-2.353,5.412-3.525
		C366.812,660.657,366.871,661.247,366.613,661.468z M455.302,614.382c-0.696,0.477-1.425,1.024-2.218,1.223
		c-4.681,1.172-9.371,2.317-14.09,3.32c-1.456,0.309-2.805-0.352-3.65-1.67c-1.074-1.675-2.089-3.388-3.13-5.084
		c-1.235-2.112-1.39-5.124-4.551-5.702c-0.447-0.082-0.364-0.628,0.084-1.229c0.517-0.693,0.914-1.439,0.573-2.354
		c-0.994-2.663-1.77-5.436-3.038-7.963c-1.405-2.801-2.569-5.624-3.37-8.661c-0.649-2.46-1.471-4.977-2.766-7.139
		c-1.603-2.678-1.927-5.166-0.692-7.984c0.453-1.033,0.694-2.169,0.939-3.279c0.674-3.043,2.551-4.966,5.386-6.13
		c3.152-1.294,6.15-2.95,9.578-3.546c3.643-0.633,5.482,0.242,6.663,3.556c1.718,4.822,3.334,9.681,5.077,14.494
		c3.196,8.825,6.466,17.623,9.676,26.443c0.68,1.87,1.287,3.771,1.833,5.685C458.184,610.39,457.106,613.147,455.302,614.382z"></path>
</g>
</svg>
