<svg version="1.1" id="Layer_1" xmlns="http://www.w3.org/2000/svg" xmlns:xlink="http://www.w3.org/1999/xlink" x="0px"
     y="0px" viewBox="400 50 400 1100" enable-background="new 0 0 1200 1200" xml:space="preserve"
>
<g>
	<path fill="#C21B11" d="M804.482,360.216l-44.839,37.13l-40.899,21.427l-82.847,19.188l12.301-29.42l48.75-22.986l25.452-20.492
		l40.871,2.126L804.482,360.216z M762.421,759.629l-21.002-45.774l6.235,61.476l-5.952,54.617l-4.762,56.233l-14.54,35.174
		l-23.808,30.951l-34.664,40.616l-32.793,35.883l-16.581,28.343v49.119l9.523,43.734l16.014-75.421l23.837-42.005l46.54-47.22
		l37.186-47.22l23.27-59.521v-59.492L762.421,759.629z M698.592,510.605l-31.149-17.261l0.085-0.652l-36.393-4.422l19.897,40.984
		l47.56,10.544l49.062-21.768L698.592,510.605z M706.5,184.347l-28.173,46.341l-19.075,47.05l-34.947,52.378l-4.337,34.72
		l67.542-63.631l25.367-47.135l22.93-70.291l-7.823-50.621L706.5,184.347z M658.77,628.683l-19.245-18.026l-8.39,26.756
		l28.797,17.601l19.443-13.86L658.77,628.683z M619.968,364.836l-31.744,4.535l9.778,67.032l50.196-27.861l-4.847-27.975
		L619.968,364.836z M570.537,503.208l-5.272,36.591h32.736l33.133-51.528L570.537,503.208z M581.619,633.898l9.693,45.122
		c0,0,15.277-0.198,29.165-0.283l10.657-41.324L581.619,633.898z M598.002,539.799l-6.689,39.822l35.712,19.33L621.81,562.7
		L598.002,539.799z M548.855,90.021l4.336,67.995l0.085,0.368l14.313,73.466l-9.07,89.083l23.298-15.645l15.816-70.433l-4.28-86.333
		L548.855,90.021z M539.076,569.389l7.964,24.97l34.579,39.539l9.693-54.277L539.076,569.389z M540.72,360.613l-10.289,19.954
		l10.374,39.284l47.418-50.479l-29.704-48.439L540.72,360.613z M481.625,594.36l-39.51,18.168l21.711,1.871l33.502,9.977
		l20.549,16.552l-1.587-36.591L481.625,594.36z M481.738,513.015l-9.297,17.374l-20.379,13.435l-29.023,15.164l-7.426,13.86
		l4.337,11.961l8.078-3.373l-0.368-0.822l3.146-9.693l21.654-10.6l29.279-15.645l15.589-30.526l-10.062-27.408L481.738,513.015z"></path>
  <path fill="#D13128" d="M709.957,832.556l-16.496,53.625l-27.039,32.453l-75.109,35.968l-73.437,11.196l-61.788-12.811
		l-32.765-42.231l46.284,22.334l55.751,5.81l56.261-11.167l58.472-25.481l27.861-21.739L709.957,832.556z M659.932,655.014
		l3.996,22.051l34.664,22.419l-19.217-58.33L659.932,655.014z M598.002,436.403l33.133,51.868l15.362-34.352l-10.6-15.957
		l12.301-29.42L598.002,436.403z M627.025,598.951l-35.712-19.33l-9.693,54.277l49.516,3.515l8.39-26.756L627.025,598.951z
		 M599.816,326.063l-17.998-20.776l-23.298,15.645l29.704,48.439l31.744-4.535l4.337-34.72L599.816,326.063z M540.805,419.851
		l57.197,16.552l-9.778-67.032L540.805,419.851z M565.265,539.799l-26.189,29.59l52.237,10.232l6.689-39.822H565.265z
		 M521.305,565.195l-34.352-0.142l-5.329,29.307l34.664,9.977l30.752-9.977l-7.964-24.97L521.305,565.195z M419.95,584.808
		l-3.94,1.644l-16.949,13.236l15.787,17.97l27.266-5.13l-14.087-31.093L419.95,584.808z"></path>
  <path fill="#B41910" d="M792.436,429.26l-54.646,28.598l-41.211,3.061l-50.082-7.001l-10.6-15.957l82.847-19.188l33.105,7.596
		L792.436,429.26z M748.193,200.417l-35.316,53.654l-25.367,47.135l-67.542,63.631l23.383,15.73l34.239-27.578l37.186-33.672
		l39.34-63.404l11.762-37.526l0.227-53.002L748.193,200.417z M713.642,672.757l10.232,37.838l-2.239,76.668l-11.677,45.292
		l-16.496,53.625l-27.039,32.453l-20.634,24.772l-54.617,31.319l-61.505,9.693l-60.116,18.735l-31.801,29.193l-14.285,42.231
		l52.747-48.609l62.865-17.941l67.485-9.693l46.965-25.254l31.093-34.239l36.393-47.588l20.691-61.306l5.952-54.617l-6.235-61.476
		L713.642,672.757z M677.505,548.67l-26.473-19.415L621.81,562.7l33.502,9.297l29.023,8.049l52.605-15.674L677.505,548.67z
		 M580.004,50l13.35,98.521l4.28,86.333l-15.816,70.433l17.998,20.776l41.466-100.533l1.389-28.088v-0.028l2.778-55.496
		l-25.424-62.213L580.004,50z M565.265,479.513l5.272,23.695l60.598-14.937l-33.133-51.868L565.265,479.513z M529.666,650.423
		l28.57,22.363l33.077,6.236l-9.693-45.122L529.666,650.423z M508.182,363.589c0,0,3.231,36.619,3.826,39.369l27.068,48.807
		l1.729-31.914l-10.374-39.284L508.182,363.589z M507.615,247.07l6.434,93.674l16.382,39.822l10.289-19.954l-4.903-78.454
		L507.615,247.07z M446.167,573.868l-18.14,7.568l14.087,31.093l39.51-18.168l5.329-29.307L446.167,573.868z M414.848,617.658
		v16.241l8.616,7.199l8.701-6.207l6.831-13.661l3.118-8.701L414.848,617.658z"></path>
  <path fill="#FD982C"
        d="M422.841,650.423l9.325,10.544L416.01,658.5l-10.232-10.572l9.07-14.03l8.616,7.199L422.841,650.423z"></path>
  <path fill="#A3170F" d="M793.23,264.19l-24.432,57.962L722.4,365.063l-25.452,20.492l-48.75,22.986l-4.847-27.975l34.239-27.578
		l37.186-33.672l43.79-25.254L793.23,264.19z M732.745,473.306l-36.166-12.386l-50.082-7.001l-15.362,34.352l36.393,4.422
		l67.627,8.248l43.167-19.245L732.745,473.306z M706.074,661.561l-26.699-20.407l19.217,58.33l3.231,61.193l-11.762,57.565
		l-28.145,32.651l-30.781,18.281l-48.07,1.219l-36.024-7.596l-34.267,5.187l-25.821,29.052l41.636-13.491l51.443,9.353l60.059,9.353
		l27.861-21.739l42.005-47.957l11.677-45.292l2.239-76.668l-10.232-37.838L706.074,661.561z M664.438,589.598l-9.127-17.601
		L621.81,562.7l5.215,36.251l12.499,11.706l26.954,6.037l32.113-6.037L664.438,589.598z M642.671,197.413v0.028l-1.389,28.088
		l-41.466,100.533l24.489,4.053l34.947-52.378l19.075-47.05l17.204-104.558l-13.917-35.146L642.671,197.413z M631.135,637.413
		l-10.657,41.324c11.139-0.057,21.399-0.028,22.221,0.255c1.842,0.624,21.229-1.927,21.229-1.927l-3.996-22.051L631.135,637.413z
		 M598.002,539.799L621.81,562.7l29.222-33.445l-19.897-40.984L598.002,539.799z M540.805,419.851l-1.729,31.914l26.189,27.748
		l32.736-43.11L540.805,419.851z M516.288,604.336l1.587,36.591l11.791,9.495l51.953-16.524l-34.579-39.539L516.288,604.336z
		 M553.191,158.016l-24.857-22.221l-46.71-18.536l51.018,113.996l3.174,50.904l4.903,78.454l17.8-39.681l9.07-89.083l-14.313-73.466
		L553.191,158.016z M456.683,470.358l10.034,27.323l-8.446,21.966l-19.047,13.605l-28.655,23.156l5.045,16.439l7.426-13.86
		l29.023-15.164l20.379-13.435l9.297-17.374l-5.839-26.274L456.683,470.358z M399.061,599.688l-3.543,22.136l6.831,14.313
		l3.43,11.791l9.07-14.03v-16.241L399.061,599.688z"></path>
</g>
</svg>
