<svg version="1.1" id="Layer_1" xmlns="http://www.w3.org/2000/svg" xmlns:xlink="http://www.w3.org/1999/xlink" x="0px"
     y="0px" viewBox="50 135 1100 1000"
     style="transform: rotate(-30deg) scale(1.1)">
  <g>
    <g>
      <g>
        <path fill="#AA774C" d="M55.011,759.234c97.18-51.68,193.76-103.427,299.201-136.592
				c114.24-35.932,234.795-45.446,353.649-53.928c34.576-2.468,69.18-4.476,103.805-6.12c31.954-1.517,64.501-1.376,96.239-5.453
				c2.303-0.296,2.77-4.401,0.219-4.603c-60.79-4.801-124.12,2.164-184.84,6.246c-60.784,4.086-121.592,9.141-182.089,16.373
				c-112.393,13.435-219.106,43.19-322.057,90.282c-57.38,26.247-113.153,55.923-166.72,89.274
				C49.723,756.39,52.092,760.786,55.011,759.234L55.011,759.234z" style="fill: rgb(170, 119, 76);"></path>
        <g>
          <path fill="#FF523B" d="M192.387,682.562c29.819-50.947,67.311-97.394,110.821-137.29c1.755,7.045,3.51,14.09,5.265,21.135
					c27.997-27.382,64.995-43.406,101.803-56.776c233.912-84.965,498.072-83.701,731.16,3.499
					c-90.953,80.736-188.262,164.679-307.851,186.799c-63.397,11.727-128.581,5.005-192.699-1.751
					c23.666,6.454,45.877,18.185,64.55,34.092c-93.533-2.192-185.362-24.007-276.369-45.712
					c9.769,10.363,17.564,22.581,22.845,35.807C361.162,727.609,279.931,707.04,192.387,682.562"
                style="fill: rgb(163, 22, 15);"></path>
        </g>
        <g>
          <path fill="#FED136" d="M652.906,702.016c-3.964-1.412-7.96-2.73-12.02-3.837c2.342,0.247,4.689,0.492,7.034,0.738
					c-65.526-41.273-123.592-98.401-205.112-100.07c-3.086-0.063-5.615-3.886-3.191-6.454c22.94-24.301,40.598-51.125,52.961-82.225
					c3.974-9.996,8.142-19.852,12.201-29.713c-22.715,5.858-45.24,12.455-67.51,19.845c-28.497,33.425-50.844,71.593-61.579,114.871
					c28.009,7.175,42.773,41.571,59.027,62.353c3.596,4.599,7.714,9.02,12.112,13.263c85.193,20.229,171.155,39.434,258.608,41.483
					c-3.377-2.877-6.906-5.566-10.501-8.162C680.396,717.905,666.475,710.337,652.906,702.016z"
                style="fill: rgb(255, 51, 51);"></path>
        </g>
        <g>
          <path fill="#FED136" d="M937.041,646.058c-21.323-29.629-42.81-59.144-67.721-85.905c-1.246-1.338-1.445-3.556-0.126-4.939
					c28.234-29.643,51.117-63.879,79.183-93.614c-17.94-2.997-35.953-5.563-54.025-7.64
					c-26.146,37.225-60.147,67.961-87.162,104.494c15.141,10.156,26.795,28.053,38.154,41.711
					c14.247,17.133,27.897,35.047,43.274,51.187c7.972,8.368,16.275,16.304,24.787,23.976c11.276-4.844,22.351-10.192,33.255-15.946
					C943.446,654.947,940.241,650.504,937.041,646.058z" style="fill: rgb(255, 51, 51);"></path>
        </g>
        <g>
          <path fill="#ADA946" d="M730.274,653.976c-30.573-38.029-66.927-69.068-112.435-87.508c-2.276-0.922-2.367-4.944-0.217-6.043
					c45.32-23.191,72.741-69.544,99.467-112.165c-20.431,1.028-40.833,2.636-61.17,4.827
					c-10.699,20.309-28.485,38.092-44.211,52.443c-25.145,22.946-47.089,53.341-73.66,74.487
					c23.463,4.649,37.253,10.567,54.409,26.242c23.374,21.357,46.26,43.292,69.199,65.112c11.39,10.836,22.878,21.538,34.444,32.154
					c23.918,1.94,47.869,3.137,71.71,2.681C755.991,688.315,743.715,670.695,730.274,653.976z"
                style="fill: rgb(255, 8, 0);"></path>
        </g>
        <g>
          <path fill="#ADA946" d="M972.472,465.406c-15.09,23.485-28.281,48.189-39.401,73.793c-1.826,4.205-3.629,8.847-2.378,13.257
					c1.009,3.554,3.824,6.262,6.565,8.739c22.88,20.668,48.755,38.015,76.566,51.328l36.56-25.942
					c-25.653-8.843-49.459-23.004-69.472-41.328c9.438-24.235,23.053-46.837,40.066-66.508L972.472,465.406z"
                style="fill: rgb(255, 8, 0);"></path>
        </g>
      </g>
      <path fill="#FFFFFF" d="M280.671,615.727c-5.768,8.662-12.249,17.381-13.862,27.95c-0.635,4.159,5.65,5.49,7.16,1.702
			c3.578-8.975,5.265-18.46,10.349-26.807C285.853,616.05,282.443,613.065,280.671,615.727L280.671,615.727z"></path>
      <path fill="#FFFFFF" d="M418.401,544.939c-16.245,16.149-35.787,35.305-42.623,57.819c-1.014,3.34,4.428,6.838,6.64,3.732
			c6.051-8.496,10.234-18.276,15.967-27.04c6.983-10.674,14.396-20.939,23.388-30.02
			C424.132,547.046,420.956,542.399,418.401,544.939L418.401,544.939z"></path>
      <path fill="#FFFFFF" d="M408.33,607.653c3.866-4.354,7.343-8.98,10.978-13.524c3.277-4.098,7.668-8.1,8.704-13.393
			c0.457-2.334-2.33-5.251-4.724-4.104c-5.467,2.619-9.073,7.686-12.817,12.311c-3.459,4.272-6.917,8.537-9.611,13.345
			C398.092,607.228,404.535,611.927,408.33,607.653L408.33,607.653z"></path>
      <path fill="#FFFFFF" d="M451.167,595.758c13.387-14.435,28.368-28.025,40.832-43.212c2.921-3.559-2.471-8.242-5.952-5.71
			c-15.899,11.559-29.335,28.14-40.393,44.232C443.194,594.646,448.088,599.078,451.167,595.758L451.167,595.758z"></path>
      <path fill="#FFFFFF" d="M694.296,570.748c12.429-12.503,25.812-24.974,39.602-35.906c3.021-2.395-0.447-7.484-3.729-5.231
			c-15.371,10.552-28.776,21.556-41.224,35.517C685.847,568.603,690.933,574.131,694.296,570.748L694.296,570.748z"></path>
      <path fill="#FFFFFF" d="M656.896,572.866c19.333-15.92,37.067-33.606,56.768-49.123c17.817-14.034,37.614-25.006,55.779-38.452
			c2.085-1.543,0.244-5.04-2.212-4.086c-23.256,9.031-44.369,24.745-64.054,39.789c-18.536,14.166-35.608,29.836-49.053,48.966
			C652.976,571.594,655.196,574.267,656.896,572.866L656.896,572.866z"></path>
      <path fill="#FFFFFF" d="M552.182,581.067c22.298,7.331,45.594,12.282,69.198,11.58c2.001-0.059,3.1-3.633,0.8-4.045
			c-23.245-4.156-46.175-8.157-68.807-15.164C548.352,571.884,547.54,579.541,552.182,581.067L552.182,581.067z"></path>
      <path fill="#FFFFFF" d="M617.898,576.997c30.408,6.808,61.362,11.206,92.099,16.245c30.603,5.017,61.226,10.905,92.202,12.989
			c2.391,0.161,2.664-3.872,0.43-4.426c-28.008-6.939-56.597-10.907-85.08-15.355c-32.789-5.121-65.63-11.141-98.681-14.289
			C616.299,571.917,615.325,576.421,617.898,576.997L617.898,576.997z"></path>
      <path fill="#FFFFFF" d="M396.853,610.568c27.693,5.336,55.095,12.659,82.822,17.619c3.999,0.715,3.996-5.331,0.88-6.58
			c-26.119-10.469-55.299-15.585-83.155-18.576C392.922,602.55,392.71,609.769,396.853,610.568L396.853,610.568z"></path>
      <path fill="#FFFFFF" d="M447.14,600.489c20.356,5.921,42.295,7.401,63.292,9.973c18.8,2.303,37.586,4.858,56.541,5.343
			c4.448,0.114,3.217-6.375-0.269-7.194c-20.088-4.719-40.706-6.937-61.136-9.656c-19.133-2.546-38.623-5.915-57.969-5.492
			C443.843,593.545,443.9,599.547,447.14,600.489L447.14,600.489z"></path>
      <path fill="#FFFFFF" d="M268.29,651.982c26.488,4.794,53.348,8.539,80.219,9.699c4.021,0.174,4.029-6.083,0.412-6.866
			c-26.167-5.665-52.95-8.841-79.663-10.937C264.417,643.498,263.582,651.13,268.29,651.982L268.29,651.982z"></path>
      <path fill="#FFFFFF" d="M942.152,594.567c-10.201,6.852-20.619,13.416-31.451,19.232c-9.301,4.994-19.45,8.533-28.489,13.917
			c-3.911,2.329-0.511,8.055,3.477,7.057c21.878-5.474,43.299-20.513,61.018-34.019
			C949.993,598.249,945.551,592.285,942.152,594.567L942.152,594.567z"></path>
      <path fill="#FFFFFF" d="M872.176,617.355c-10.151,3.22-20.741,5.891-30.383,10.443c-4.439,2.096,0.006,7.685,3.686,7.041
			c10.189-1.782,20.123-5.59,29.986-8.659C881.509,624.299,877.976,615.515,872.176,617.355L872.176,617.355z"></path>
      <path fill="#FFFFFF" d="M613.842,484.862c-9.091,5.329-18.366,10.475-26.776,16.852c-2.132,1.617,0.031,5.252,2.494,4.107
			c9.668-4.493,18.721-10.198,27.836-15.706C620.652,488.147,617.209,482.888,613.842,484.862L613.842,484.862z"></path>
      <path fill="#FFFFFF" d="M633.294,489.428c-7.159,4.546-14.094,9.415-20.713,14.72c-5.724,4.588-12.772,9.442-15.258,16.595
			c-0.768,2.208,1.98,5.2,4.259,4.291c7.51-2.995,13.225-9.341,19.527-14.274c6.011-4.705,12.277-9.051,18.72-13.142
			C645.751,493.859,638.971,485.823,633.294,489.428L633.294,489.428z"></path>
      <path fill="#FFFFFF" d="M1017.072,475.757c-18.295,20.23-29.562,43.473-40.7,68.131c-0.629,1.393,0.108,3.388,1.134,4.383
			c20.425,19.798,44.799,33.417,71.247,43.505c6.52,2.487,10.182-8.044,3.263-10.389c-20.267-6.868-43.809-17.318-59.371-32.446
			c-5.639-5.482-5.47-4.76-2.926-12.928c2.175-6.985,7.801-14.784,11.378-20.647c7.212-11.82,15.187-22.751,23.787-33.632
			C1028.82,476.754,1021.114,471.286,1017.072,475.757L1017.072,475.757z"></path>
      <path fill="#FFFFFF" d="M1029.479,501.23c-3.095,3.679-5.983,7.424-8.522,11.517c-2.27,3.659-6.063,8.424-4.953,12.885
			c0.751,3.019,4.398,4.391,6.882,2.478c3.064-2.359,4.124-6.551,5.886-9.909c2.185-4.165,4.686-8.168,7.398-12.008
			C1039.117,502.022,1032.734,497.361,1029.479,501.23L1029.479,501.23z"></path>
      <path fill="#FFFFFF" d="M1043.528,508.187c-7.535,7.309-14.111,16.64-17.424,26.656c-0.467,1.411-0.018,3.409,1.154,4.385
			c5.587,4.653,8.587-2.691,10.706-6.977c3.267-6.607,7.104-12.883,11.152-19.032
			C1051.269,509.95,1046.522,505.282,1043.528,508.187L1043.528,508.187z"></path>
      <path fill="#FFFFFF" d="M969.715,463.06c-14.159,16.047-24.28,37.366-33.265,56.705c-4.953,10.662-12.922,24.311-8.349,36.33
			c4.894,12.863,23.07,24.595,33.633,32.489c15.48,11.568,32.195,20.787,49.188,29.914c7.234,3.886,13.531-8.573,5.803-11.949
			c-18.412-8.043-35.844-19.023-52.211-30.631c-13.05-9.255-31.819-18.354-26.286-37.308c7.458-25.55,27.408-47.163,37.453-71.625
			C977.144,463.423,972.379,460.042,969.715,463.06L969.715,463.06z"></path>
    </g>
    <g style="fill: rgb(0,0,0);">
      <g>
        <path d="M55.659,760.364c98.296-49.826,193.926-102.472,299.58-135.704c114.032-35.867,234.456-45.297,353.09-53.763
				c34.577-2.468,69.181-4.458,103.805-6.12c31.589-1.516,64.756-0.61,95.862-6.482c3.365-0.635,4.235-6.412,0.329-6.904
				c-30.167-3.802-61.745-1.274-92.065-0.031c-30.012,1.231-60.012,3.018-89.982,5.008c-59.676,3.962-119.355,8.92-178.77,15.808
				c-111.682,12.948-218.075,41.15-320.652,87.361c-60.471,27.243-119.288,58.15-175.084,94.045
				C47.739,756.175,51.26,762.594,55.659,760.364L55.659,760.364z"></path>
        <path d="M199.157,686.322c29.792-50.299,66.207-95.956,109.205-135.588c-4.227-1.31-8.453-2.619-12.68-3.929
				c1.748,7.108,3.497,14.217,5.246,21.325c1.349,5.483,8.8,7.475,12.866,3.66c40.631-38.132,96.47-55.753,148.706-71.728
				c52.523-16.063,106.338-27.965,160.73-35.593c111.664-15.659,225.633-12.701,336.516,7.452
				c60.727,11.037,120.249,27.463,178.083,49c-0.509-4.822-1.017-9.645-1.526-14.467c-64.04,56.642-129.629,114.629-207.247,152.075
				c-40.584,19.579-83.961,32.226-128.904,36.133c-52.943,4.602-106.286-1.854-158.913-7.487
				c-12.156-1.301-15.01,18.188-3.547,21.561c21.563,6.344,42.787,17.005,60.377,30.928c2.485-5.921,4.97-11.842,7.455-17.763
				c-93.418-1.322-184.914-26.256-275.416-46.83c-9.741-2.214-15.811,12.217-9.69,18.894c8.749,9.545,16.014,19.746,21.067,31.741
				c3.364-4.833,6.727-9.666,10.091-14.499c-88.207,4.177-172.962-16.847-257.224-40.473c-14.65-4.108-18.358,19.654-3.935,23.656
				c85.671,23.771,172.293,44.042,261.827,39.135c6.454-0.354,12.966-7.836,10.091-14.499
				c-6.358-14.738-13.976-27.806-24.624-39.872c-4.209,6.071-8.417,12.143-12.626,18.214
				c92.273,23.136,185.035,41.355,280.258,45.273c8.314,0.342,14.138-12.071,7.455-17.763
				c-20.372-17.349-43.036-29.855-68.722-37.257c-1.182,7.187-2.364,14.374-3.547,21.561c52.274,5.398,104.844,10.121,157.379,5.338
				c46.303-4.216,90.699-17.31,132.619-37.213c81.095-38.503,149.52-98.308,216.037-157.501c4.503-4.007,5.145-12.007-1.526-14.467
				c-215.095-79.336-454.663-87.641-674.793-23.209c-58.205,17.037-122.116,36.261-167.097,78.896
				c4.289,1.22,8.577,2.44,12.866,3.66c-1.761-6.982-3.522-13.964-5.284-20.945c-1.339-5.307-8.52-7.804-12.68-3.929
				c-43.933,40.924-81.826,87.311-112.436,138.992C180.546,687.362,194.285,694.548,199.157,686.322L199.157,686.322z"></path>
      </g>
      <path d="M279.759,615.016c-6.032,8.873-13.557,17.332-14.779,28.465c-0.544,4.951,7.658,8.945,10.15,3.82
			c4.367-8.982,4.956-19.364,10.099-28.019C287.482,615.491,282.466,611.033,279.759,615.016L279.759,615.016z"></path>
      <path d="M417.558,543.816c-8.935,8.847-18.45,17.538-26.02,27.608c-6.76,8.994-15.264,19.672-17.646,30.833
			c-1.089,5.101,6.217,10.146,9.959,5.598c6.255-7.599,9.977-17.236,15.196-25.601c7.003-11.223,14.255-22.261,23.568-31.702
			C426.143,546.976,421.403,540.008,417.558,543.816L417.558,543.816z"></path>
      <path d="M408.985,610.199c5.11-4.976,9.22-10.671,13.679-16.203c3.356-4.164,7.897-8.504,7.087-14.262
			c-0.498-3.538-3.706-5.619-7.102-4.794c-6.115,1.484-9.995,7.327-13.777,11.96c-4.065,4.98-7.819,9.825-10.735,15.58
			C395.193,608.288,404.445,614.621,408.985,610.199L408.985,610.199z"></path>
      <path d="M452.545,596.931c7.026-6.913,13.718-13.976,20.499-21.146c6.877-7.272,14.817-13.848,20.628-21.998
			c4.072-5.712-3.483-12.047-8.929-8.566c-16.248,10.387-30.456,28.476-40.468,44.673
			C440.848,595.439,447.677,601.721,452.545,596.931L452.545,596.931z"></path>
      <path d="M695.634,572.153c7.248-7.122,14.919-13.907,22.651-20.503c5.73-4.889,10.628-10.608,16.546-15.5
			c4.457-3.685-0.619-11.157-5.594-7.846c-8.03,5.343-16.307,10.09-23.46,16.544c-6.517,5.88-12.433,12.235-18.169,18.876
			C683.068,568.979,690.5,577.197,695.634,572.153L695.634,572.153z"></path>
      <path d="M657.403,573.797c20.409-14.796,37.984-32.881,57.764-48.513c17.609-13.916,37.895-24.61,54.951-39.051
			c2.252-1.907,1.109-7.513-2.482-6.393c-24.117,7.524-45.882,24.495-65.851,39.487c-18.884,14.177-36.176,29.88-48.541,50.111
			C651.677,572.004,654.691,575.763,657.403,573.797L657.403,573.797z"></path>
      <path d="M551.884,582.974c22.248,7.488,45.804,12.697,69.422,10.707c2.906-0.245,4.734-5.252,1.2-6.067
			c-22.981-5.299-46.215-9.163-68.836-16.083C546.098,569.215,544.974,580.648,551.884,582.974L551.884,582.974z"></path>
      <path d="M617.504,578.172c29.172,7.442,59.163,11.53,88.836,16.458c31.742,5.271,63.648,11.938,95.89,12.718
			c3.669,0.089,3.916-5.686,0.645-6.638c-27.828-8.098-56.569-11.829-85.154-16.238c-32.727-5.047-65.68-11.48-98.761-13.552
			C615.131,570.68,613.621,577.182,617.504,578.172L617.504,578.172z"></path>
      <path d="M396.471,612.419c27.494,5.774,55.346,13.845,83.19,17.455c6.255,0.811,5.737-7.804,1.32-9.87
			c-25.345-11.852-56.057-16.497-83.69-18.89C390.525,600.528,390.301,611.123,396.471,612.419L396.471,612.419z"></path>
      <path d="M446.568,602.186c17.715,6.658,37.604,7.831,56.297,10.084c21.372,2.576,42.825,5.869,64.403,5.34
			c5.473-0.134,5.842-8.967,0.933-10.403c-21.192-6.197-43.39-8.467-65.237-11.358c-18.294-2.421-37.248-5.884-55.708-4.202
			C441.529,592.168,441.818,600.4,446.568,602.186L446.568,602.186z"></path>
      <path d="M267.773,653.963c26.633,5.399,53.721,9.321,80.849,9.462c6.094,0.032,5.978-8.922,0.618-10.299
			c-26.03-6.689-53.096-9.839-80.015-11.319C261.967,641.408,260.71,652.531,267.773,653.963L267.773,653.963z"></path>
      <path d="M941.213,592.879c-10.977,7.145-22.152,14.142-33.789,20.178c-8.616,4.469-18.384,7.416-26.306,12.993
			c-5.715,4.024-0.858,11.59,5.216,10.585c10.276-1.701,20.141-7.948,29.227-12.908c11.492-6.273,22.167-13.52,32.484-21.569
			C952.936,598.342,946.358,589.53,941.213,592.879L941.213,592.879z"></path>
      <path d="M871.354,615.148c-10.33,3.293-21.068,5.99-30.708,10.994c-5.299,2.751-1.331,11.516,4.058,10.815
			c10.819-1.408,21.184-5.351,31.583-8.571C885.355,625.578,880.052,612.376,871.354,615.148L871.354,615.148z"></path>
      <path d="M612.954,483.548c-9.153,5.326-18.471,10.433-26.634,17.228c-3.191,2.656,0.023,7.595,3.74,6.161
			c10-3.858,19.1-9.952,28.224-15.508C623.167,488.454,618.004,480.61,612.954,483.548L612.954,483.548z"></path>
      <path d="M631.66,487.38c-7.159,4.546-14.094,9.415-20.713,14.72c-6.234,4.997-15.037,10.842-15.368,19.484
			c-0.128,3.333,3.451,5.811,6.5,5.127c7.519-1.688,12.831-7.643,18.671-12.324c6.62-5.306,13.553-10.174,20.713-14.72
			C650.346,494.026,640.176,481.973,631.66,487.38L631.66,487.38z"></path>
      <path d="M1015.119,474.262c-18.621,19.776-28.764,43.103-40.259,67.304c-1.335,2.81-1.373,5.856,0.943,8.212
			c20.208,20.568,45.507,34.19,72.135,44.594c9.71,3.793,15.36-12.165,4.894-15.583c-25.777-8.419-46.841-23.027-68.241-39.2
			c1.044,2.571,2.088,5.142,3.132,7.713c7.455-23.628,24.31-44.579,39.115-64.074
			C1032.613,475.623,1021.303,467.694,1015.119,474.262L1015.119,474.262z"></path>
      <path d="M1027.806,499.989c-5.646,6.502-10.307,13.253-14.198,20.949c-1.124,2.222-0.43,5.371,1.191,7.157
			c0.218,0.24,0.436,0.48,0.654,0.72c1.926,2.121,4.887,2.742,7.513,1.707c4.454-1.756,5.41-6.058,7.307-9.988
			c2.193-4.543,4.783-8.901,7.572-13.1C1042.085,501.048,1032.784,494.257,1027.806,499.989L1027.806,499.989z"></path>
      <path d="M1042.288,506.749c-7.839,7.278-15.673,16.863-18.46,27.42c-1.93,7.311,8.86,12.346,12.906,5.69
			c5.016-8.252,9.114-17.17,13.937-25.563C1053.539,509.307,1046.99,502.382,1042.288,506.749L1042.288,506.749z"></path>
      <path d="M968.337,461.888c-13.374,12.736-21.731,31.925-29.951,48.29c-6.048,12.041-15.445,28-13.449,42.226
			c2.098,14.95,20.163,26.987,31.035,35.546c16.713,13.156,34.971,23.216,53.499,33.537c10.761,5.994,20.404-13.068,8.705-17.924
			c-18.353-7.617-35.645-18.774-51.954-30.05c-11.084-7.664-33.981-18.48-26.066-33.724c6.616-12.741,12.789-25.717,19.631-38.342
			c5.938-10.956,13.962-21.686,17.498-33.672C978.941,462.165,972.798,457.64,968.337,461.888L968.337,461.888z"></path>
    </g>
    <g opacity="0.3">
      <path fill="#FF523B" d="M294.105,621.592c33.344-14.422,67.164-27.124,102.488-35.799c35.449-8.705,71.547-14.379,107.634-19.682
			c72.89-10.711,146.14-18.144,219.553-24.193c131.753-10.854,263.863-18.512,394.776-37.027
			c-227.39-78.942-481.988-77.457-708.28,4.74c-36.808,13.37-73.806,29.394-101.803,56.776c-1.755-7.045-3.51-14.089-5.265-21.135
			c-38.113,34.948-71.607,74.923-99.373,118.545C232.964,647.886,263.68,634.752,294.105,621.592z"
            style="fill: rgb(163, 22, 15);"></path>
    </g>
    <g opacity="0.43">
      <path fill="#FFFFFF" d="M1131.565,515.46c-6.696,6.98-13.857,13.227-21.285,19.428c-18.424,15.381-37.532,29.884-57.11,43.76
			c-64.982,46.058-138.422,73.372-216.508,88.002c-82.643,15.485-167.105,6.203-250.604,8.881
			c14.091,10.905,30.632,18.619,42.567,32.188c1.763,2.005,0.966,5.878-1.991,6.236c-15.068,1.824-29.421-2.543-43.799-6.508
			c-18.396-5.074-37.108-9.116-55.739-13.225c-23.662-5.219-47.426-10.546-71.301-14.744c-15.313-2.694-30.715-2.539-46.13-1.579
			c14.886,13.687,28.294,29.006,41.46,44.507c0.263-0.015,0.524-0.024,0.787-0.039c-5.282-13.226-13.077-25.443-22.846-35.807
			c91.007,21.705,182.836,43.52,276.369,45.712c-18.673-15.907-40.884-27.638-64.55-34.092
			c64.118,6.756,129.302,13.477,192.699,1.75c119.588-22.12,216.897-106.064,307.85-186.799c-1.896-0.709-3.806-1.379-5.711-2.062
			C1134.323,512.55,1132.94,514.026,1131.565,515.46z"
            style="fill: rgb(0,0,0);"></path>
    </g>
  </g>
</svg>
